<svg width="46" height="46" viewBox="0 0 46 46" fill="none" xmlns="http://www.w3.org/2000/svg">
    <path d="M44.5625 25.3574H40.25V26.3924H44.5625V25.3574Z" fill="#1D1D1D"/>
    <path d="M44.5625 31.1074H40.25V32.1424H44.5625V31.1074Z" fill="#1D1D1D"/>
    <path d="M42.9236 25.8748H41.8887V31.6248H42.9236V25.8748Z" fill="#1D1D1D"/>
    <mask id="mask0_34778_2516" style="mask-type:luminance" maskUnits="userSpaceOnUse" x="4" y="5" width="35"
          height="34">
        <path d="M38.812 5.74976H4.31201V38.8123H38.812V5.74976Z" fill="white"/>
    </mask>
    <g mask="url(#mask0_34778_2516)">
        <path d="M10.0631 32.1425L-3.07568 32.0994L-20.3257 24.9119L-19.9231 23.9631L-2.77378 31.1075H10.0631C12.78 31.1075 14.8212 29.7563 16.9631 28.3188C19.1481 26.8669 21.405 25.3575 24.4381 25.3575V26.3925C21.7212 26.3925 19.6944 27.7438 17.5381 29.1813C15.3531 30.6331 13.0962 32.1425 10.0631 32.1425Z"
              fill="#1D1D1D"/>
        <path d="M28.751 31.1074H25.876V32.1424H28.751V31.1074Z" fill="#1D1D1D"/>
        <path d="M24.4385 31.1074H21.5635V32.1424H24.4385V31.1074Z" fill="#1D1D1D"/>
        <path d="M20.126 31.1074H17.251V32.1424H20.126V31.1074Z" fill="#1D1D1D"/>
        <path d="M33.0625 31.1074H30.1875V32.1424H33.0625V31.1074Z" fill="#1D1D1D"/>
        <path d="M28.751 25.3574H25.876V26.3924H28.751V25.3574Z" fill="#1D1D1D"/>
        <path d="M33.0625 25.3574H30.1875V26.3924H33.0625V25.3574Z" fill="#1D1D1D"/>
        <path d="M37.375 31.1074H34.5V32.1424H37.375V31.1074Z" fill="#1D1D1D"/>
        <path d="M37.8922 26.3923H34.4997V25.3573H36.8573C36.7854 17.638 34.9597 13.4692 34.3129 12.2042C33.3497 12.7361 31.021 14.0011 28.951 14.8492C26.1623 15.9992 23.3447 15.4386 21.2029 13.2967L15.7691 7.86297L0.201017 19.1905L-16.7328 20.4986C-17.6815 20.5705 -18.4865 21.203 -18.7884 22.1086L-19.6221 24.6099L-20.5996 24.2792L-19.7659 21.778C-19.3346 20.4842 -18.1703 19.5786 -16.8046 19.4636L-0.172747 18.1842L15.8841 6.51172L21.9504 12.578C23.8047 14.4323 26.1623 14.9067 28.5773 13.9005C31.136 12.8367 34.241 11.0686 34.2697 11.0542L34.6866 10.8099L34.9598 11.2123C35.0748 11.3992 37.921 15.7692 37.921 25.8748V26.3923H37.8922Z"
              fill="#1D1D1D"/>
        <path d="M34.5007 37.8924H-4.44114L-19.5636 30.3312C-21.0586 29.5837 -21.7918 27.8156 -21.2599 26.2199L-20.613 24.2793L-19.6355 24.6099L-20.2824 26.5505C-20.6561 27.6574 -20.1387 28.8793 -19.1037 29.3968L-4.19679 36.8574H34.5007C35.7945 36.8574 36.8582 35.7937 36.8582 34.4999V26.3924H34.5007V25.3574H37.8932V34.4999C37.8932 36.3687 36.3695 37.8924 34.5007 37.8924Z"
              fill="#1D1D1D"/>
    </g>
</svg>