<svg width="36" height="36" viewBox="0 0 36 36" fill="none" xmlns="http://www.w3.org/2000/svg">
<g clip-path="url(#clip0_35306_3001)">
<path d="M26.914 10.6078C26.4559 10.1015 25.8969 9.69691 25.2728 9.41999C24.6488 9.14307 23.9737 9 23.291 9C22.6083 9 21.9331 9.14307 21.3091 9.41999C20.6851 9.69691 20.126 10.1015 19.668 10.6078L18.2 12.1248L16.756 10.6078C16.2979 10.1015 15.7389 9.69691 15.1148 9.41999C14.4908 9.14307 13.8157 9 13.133 9C12.4503 9 11.7751 9.14307 11.1511 9.41999C10.5271 9.69691 9.96803 10.1015 9.50997 10.6078C8.53934 11.6585 8.00031 13.0363 8.00031 14.4668C8.00031 15.8972 8.53934 17.2751 9.50997 18.3258L18.2 26.5658L26.914 18.3258C27.8706 17.2681 28.4002 15.8928 28.4002 14.4668C28.4002 13.0407 27.8706 11.6654 26.914 10.6078Z" stroke="#222222" stroke-width="2" stroke-miterlimit="10"/>
</g>
<defs>
<clipPath id="clip0_35306_3001">
<rect width="36" height="36" fill="white"/>
</clipPath>
</defs>
</svg>
